<?xml version="1.0" encoding="utf-8"?>
<!-- Generator: Adobe Illustrator 22.0.0, SVG Export Plug-In . SVG Version: 6.00 Build 0)  -->
<svg version="1.1" id="Слой_1" xmlns="http://www.w3.org/2000/svg" xmlns:xlink="http://www.w3.org/1999/xlink" x="0px" y="0px"
	 viewBox="0 0 511 511" style="enable-background:new 0 0 511 511;" xml:space="preserve">
<path d="M392.7,210.6h-124l107-188.2c2.6-4.6,2.6-10.3-0.1-14.9C373,2.8,368.1,0,362.8,0H183.1c-6.4,0-12.2,4.1-14.2,10.3
	L79.1,280.7c-1.5,4.6-0.7,9.6,2.1,13.5c2.8,3.9,7.3,6.2,12.1,6.2h127l-80.9,189.7c-2.9,6.8-0.4,14.6,5.8,18.5
	c6.2,3.9,14.3,2.8,19.2-2.7l239.5-270.5C412.4,225.8,405.6,210.6,392.7,210.6z M203.1,417l53.6-125.7c4.2-9.9-3-20.8-13.8-20.8H114
	l79.9-240.5H337L230,218.2c-5.7,10,1.5,22.4,13,22.4h116.5L203.1,417z"/>
</svg>
