<?xml version="1.0" encoding="utf-8"?>
<!-- Generator: Adobe Illustrator 22.0.0, SVG Export Plug-In . SVG Version: 6.00 Build 0)  -->
<svg version="1.1" id="Слой_1" xmlns="http://www.w3.org/2000/svg" xmlns:xlink="http://www.w3.org/1999/xlink" x="0px" y="0px"
	 viewBox="0 0 327.5 88.3" style="enable-background:new 0 0 327.5 88.3;" xml:space="preserve">
<style type="text/css">
	.st0{fill:#FFFFFF;}
</style>
<g>
	<g>
		<g>
			<path class="st0" d="M61.4,18.9v3H48.3v11h5c3.1,0,5.6,0.8,7.4,2.4c2,1.8,3,4.4,3,7.8c0,3.4-1,6-3,7.8c-1.8,1.6-4.3,2.4-7.4,2.4
				h-8V18.9H61.4z M48.3,35.9v14.6h5c2.1,0,3.8-0.6,5.2-1.8c1.4-1.3,2.2-3.2,2.2-5.5c0-2.4-0.7-4.2-2.2-5.5c-1.3-1.2-3-1.8-5.2-1.8
				H48.3z"/>
			<path class="st0" d="M68.3,53.5V18.9h3v34.6H68.3z M71.3,35.7l13.8-16.8h4L75,35.3l14.7,18.2h-3.8L71.3,35.7z"/>
			<path class="st0" d="M125.3,53.5h-2.8L111.8,23h-0.2l0.1,1.9v28.7h-3V18.9h4.5l10.4,30.2h0.1l10.4-30.2h4.5v34.6h-3V24.8l0.2-1.9
				h-0.2L125.3,53.5z"/>
			<path class="st0" d="M143.1,50.5l10.4-31.6h2.5l10.4,31.6h1.8v3h-26.9v-3H143.1z M154.8,23.6l-8.7,27h17.5L154.8,23.6L154.8,23.6
				z"/>
			<path class="st0" d="M187.3,53.5V18.9h14.5v3h-11.5v31.6H187.3z"/>
			<path class="st0" d="M205.5,53.5V18.9h7.4c7,0,10.5,3.3,10.5,9.9c0,3.4-1,6-3,7.7c-1.7,1.5-4.2,2.3-7.3,2.3h-4.6v14.7H205.5
				L205.5,53.5z M208.5,21.9v13.9h4.5c4.9,0,7.3-2.3,7.3-6.9c0-4.7-2.5-7.1-7.5-7.1h-4.3V21.9z"/>
			<path class="st0" d="M237.6,43.4L237.6,43.4l9.8-24.5h3.2l-13.8,34.6h-3.1l2.5-6l-11.5-28.6h3.1L237.6,43.4z"/>
			<path class="st0" d="M256.3,53.5h-3V18.9h20v34.6h-3V22.2h-14.1v31.3H256.3z"/>
		</g>
		<g>
			<path class="st0" d="M61.4,18.9v3H48.3v11h5c3.1,0,5.6,0.8,7.4,2.4c2,1.8,3,4.4,3,7.8c0,3.4-1,6-3,7.8c-1.8,1.6-4.3,2.4-7.4,2.4
				h-8V18.9H61.4z M48.3,35.9v14.6h5c2.1,0,3.8-0.6,5.2-1.8c1.4-1.3,2.2-3.2,2.2-5.5c0-2.4-0.7-4.2-2.2-5.5c-1.3-1.2-3-1.8-5.2-1.8
				H48.3z"/>
			<path class="st0" d="M68.3,53.5V18.9h3v34.6H68.3z M71.3,35.7l13.8-16.8h4L75,35.3l14.7,18.2h-3.8L71.3,35.7z"/>
			<path class="st0" d="M125.3,53.5h-2.8L111.8,23h-0.2l0.1,1.9v28.7h-3V18.9h4.5l10.4,30.2h0.1l10.4-30.2h4.5v34.6h-3V24.8l0.2-1.9
				h-0.2L125.3,53.5z"/>
			<path class="st0" d="M143.1,50.5l10.4-31.6h2.5l10.4,31.6h1.8v3h-26.9v-3H143.1z M154.8,23.6l-8.7,27h17.5L154.8,23.6L154.8,23.6
				z"/>
			<path class="st0" d="M187.3,53.5V18.9h14.5v3h-11.5v31.6H187.3z"/>
			<path class="st0" d="M205.5,53.5V18.9h7.4c7,0,10.5,3.3,10.5,9.9c0,3.4-1,6-3,7.7c-1.7,1.5-4.2,2.3-7.3,2.3h-4.6v14.7H205.5
				L205.5,53.5z M208.5,21.9v13.9h4.5c4.9,0,7.3-2.3,7.3-6.9c0-4.7-2.5-7.1-7.5-7.1h-4.3V21.9z"/>
			<path class="st0" d="M237.6,43.4L237.6,43.4l9.8-24.5h3.2l-13.8,34.6h-3.1l2.5-6l-11.5-28.6h3.1L237.6,43.4z"/>
			<path class="st0" d="M256.3,53.5h-3V18.9h20v34.6h-3V22.2h-14.1v31.3H256.3z"/>
		</g>
	</g>
	<g>
		<path class="st0" d="M16.7,68.6c0,0,1.1,0.1,3.3,0.2c2.2,0.2,5.3,0.4,9.3,0.6s8.9,0.4,14.5,0.6s11.9,0.3,18.8,0.2
			c15.8,0,31.4-0.7,47.1-1.5c4.3-0.2,8.7-0.5,13.1-0.8s8.9-0.6,13.5-0.9c9.1-0.6,18.2-1.3,27.4-1.9s18.4-1.3,27.4-1.7
			c4.5-0.3,9-0.5,13.5-0.7c4.4-0.2,8.8-0.3,13.1-0.5c15.8-0.3,31.4-0.3,47.1,0.6c6.9,0.4,13.2,1,18.8,1.6c5.6,0.6,10.5,1.3,14.5,1.9
			s7.2,1.2,9.3,1.6c2.2,0.4,3.3,0.6,3.3,0.6s-1.1-0.1-3.3-0.2c-2.2-0.2-5.3-0.4-9.3-0.6s-8.9-0.4-14.5-0.6s-11.9-0.2-18.8-0.2
			c-15.8,0-31.4,0.7-47.1,1.5c-4.3,0.2-8.7,0.5-13.1,0.8c-4.4,0.3-8.9,0.6-13.5,0.9c-9.1,0.6-18.2,1.3-27.4,1.9s-18.4,1.2-27.4,1.7
			c-4.5,0.3-9,0.5-13.5,0.7c-4.4,0.2-8.8,0.3-13.1,0.5c-15.8,0.3-31.4,0.3-47.1-0.6c-6.9-0.4-13.2-1-18.8-1.6s-10.5-1.3-14.5-1.9
			s-7.2-1.2-9.3-1.6C17.9,68.9,16.7,68.6,16.7,68.6z"/>
	</g>
</g>
</svg>
