<?xml version="1.0" encoding="utf-8"?>
<!-- Generator: Adobe Illustrator 22.0.0, SVG Export Plug-In . SVG Version: 6.00 Build 0)  -->
<svg version="1.1" id="Слой_1" xmlns="http://www.w3.org/2000/svg" xmlns:xlink="http://www.w3.org/1999/xlink" x="0px" y="0px"
	 viewBox="0 0 348.5 252.8" style="enable-background:new 0 0 348.5 252.8;" xml:space="preserve">
<style type="text/css">
	.st0{fill:#FFFFFF;stroke:#FFFFFF;stroke-miterlimit:10;}
	.st1{fill:#FFFFFF;}
	.st2{fill:none;stroke:#FFFFFF;stroke-width:2;stroke-miterlimit:10;}
	.st3{fill:#FFFFFF;stroke:#FFFFFF;stroke-width:0.9266;stroke-miterlimit:10;}
</style>
<g>
	<polygon class="st0" points="181.2,25 146.9,77.5 157.1,77.5 181.2,40.7 260.8,162.4 271,162.4 	"/>
	<polygon class="st0" points="141.6,54 109.4,103.2 119.7,103.2 141.6,69.7 202.6,163 212.9,163 	"/>
	<polygon class="st0" points="72.2,160.4 109.4,103.5 146.7,160.4 156.9,160.4 109.4,87.8 61.9,160.4 	"/>
	<g>
		<g>
			<path class="st1" d="M75.9,195v3H62.8v11h5c3.1,0,5.6,0.8,7.4,2.4c2,1.8,3,4.4,3,7.8c0,3.4-1,6-3,7.8c-1.8,1.6-4.3,2.4-7.4,2.4
				h-8V195H75.9z M62.8,212v14.6h5c2.1,0,3.8-0.6,5.2-1.8c1.4-1.3,2.2-3.2,2.2-5.5c0-2.4-0.7-4.2-2.2-5.5c-1.3-1.2-3-1.8-5.2-1.8
				H62.8z"/>
			<path class="st1" d="M82.8,229.6V195h3v34.6H82.8z M85.8,211.8L99.6,195h4l-14.1,16.4l14.7,18.2h-3.8L85.8,211.8z"/>
			<path class="st1" d="M139.8,229.6H137l-10.7-30.5h-0.2l0.1,1.9l0,28.7h-3V195h4.5l10.4,30.2h0.1l10.4-30.2h4.5v34.6h-3v-28.7
				l0.2-1.9h-0.2L139.8,229.6z"/>
			<path class="st1" d="M157.6,226.6l10.4-31.6h2.5l10.4,31.6h1.8v3h-26.9v-3H157.6z M169.3,199.7l-8.7,27h17.5L169.3,199.7
				L169.3,199.7z"/>
			<path class="st1" d="M201.8,229.6V195h14.5v3h-11.5v31.6H201.8z"/>
			<path class="st1" d="M220,229.6V195h7.4c7,0,10.5,3.3,10.5,9.9c0,3.4-1,6-3,7.7c-1.7,1.5-4.2,2.3-7.3,2.3H223v14.7H220z M223,198
				v13.9h4.5c4.9,0,7.3-2.3,7.3-6.9c0-4.7-2.5-7.1-7.5-7.1H223z"/>
			<path class="st1" d="M252.1,219.5L252.1,219.5l9.8-24.5h3.2l-13.8,34.6h-3.1l2.5-6L239.2,195h3.1L252.1,219.5z"/>
			<path class="st1" d="M270.8,229.6h-3V195h20v34.6h-3v-31.3h-14.1V229.6z"/>
		</g>
		<g>
			<path class="st2" d="M75.9,195v3H62.8v11h5c3.1,0,5.6,0.8,7.4,2.4c2,1.8,3,4.4,3,7.8c0,3.4-1,6-3,7.8c-1.8,1.6-4.3,2.4-7.4,2.4
				h-8V195H75.9z M62.8,212v14.6h5c2.1,0,3.8-0.6,5.2-1.8c1.4-1.3,2.2-3.2,2.2-5.5c0-2.4-0.7-4.2-2.2-5.5c-1.3-1.2-3-1.8-5.2-1.8
				H62.8z"/>
			<path class="st2" d="M82.8,229.6V195h3v34.6H82.8z M85.8,211.8L99.6,195h4l-14.1,16.4l14.7,18.2h-3.8L85.8,211.8z"/>
			<path class="st2" d="M139.8,229.6H137l-10.7-30.5h-0.2l0.1,1.9l0,28.7h-3V195h4.5l10.4,30.2h0.1l10.4-30.2h4.5v34.6h-3v-28.7
				l0.2-1.9h-0.2L139.8,229.6z"/>
			<path class="st2" d="M157.6,226.6l10.4-31.6h2.5l10.4,31.6h1.8v3h-26.9v-3H157.6z M169.3,199.7l-8.7,27h17.5L169.3,199.7
				L169.3,199.7z"/>
			<path class="st2" d="M201.8,229.6V195h14.5v3h-11.5v31.6H201.8z"/>
			<path class="st2" d="M220,229.6V195h7.4c7,0,10.5,3.3,10.5,9.9c0,3.4-1,6-3,7.7c-1.7,1.5-4.2,2.3-7.3,2.3H223v14.7H220z M223,198
				v13.9h4.5c4.9,0,7.3-2.3,7.3-6.9c0-4.7-2.5-7.1-7.5-7.1H223z"/>
			<path class="st2" d="M252.1,219.5L252.1,219.5l9.8-24.5h3.2l-13.8,34.6h-3.1l2.5-6L239.2,195h3.1L252.1,219.5z"/>
			<path class="st2" d="M270.8,229.6h-3V195h20v34.6h-3v-31.3h-14.1V229.6z"/>
		</g>
	</g>
	<g>
		<path class="st3" d="M26.7,179.6c0,0,1.1,0.1,3.3,0.2c2.2,0.2,5.3,0.4,9.3,0.6c4,0.2,8.9,0.4,14.5,0.6c5.6,0.2,11.9,0.3,18.8,0.2
			c15.8,0,31.4-0.7,47.1-1.5c4.3-0.2,8.7-0.5,13.1-0.8c4.4-0.3,8.9-0.6,13.5-0.9c9.1-0.6,18.2-1.3,27.4-1.9
			c9.2-0.6,18.4-1.3,27.4-1.7c4.5-0.3,9-0.5,13.5-0.7c4.4-0.2,8.8-0.3,13.1-0.5c15.8-0.3,31.4-0.3,47.1,0.6c6.9,0.4,13.2,1,18.8,1.6
			c5.6,0.6,10.5,1.3,14.5,1.9c4,0.6,7.2,1.2,9.3,1.6c2.2,0.4,3.3,0.6,3.3,0.6s-1.1-0.1-3.3-0.2c-2.2-0.2-5.3-0.4-9.3-0.6
			c-4-0.2-8.9-0.4-14.5-0.6c-5.6-0.2-11.9-0.2-18.8-0.2c-15.8,0-31.4,0.7-47.1,1.5c-4.3,0.2-8.7,0.5-13.1,0.8
			c-4.4,0.3-8.9,0.6-13.5,0.9c-9.1,0.6-18.2,1.3-27.4,1.9c-9.2,0.6-18.4,1.2-27.4,1.7c-4.5,0.3-9,0.5-13.5,0.7
			c-4.4,0.2-8.8,0.3-13.1,0.5c-15.8,0.3-31.4,0.3-47.1-0.6c-6.9-0.4-13.2-1-18.8-1.6c-5.6-0.6-10.5-1.3-14.5-1.9
			c-4-0.6-7.2-1.2-9.3-1.6C27.9,179.9,26.7,179.6,26.7,179.6z"/>
	</g>
</g>
</svg>
